<?xml version="1.0" standalone="no"?>
<!DOCTYPE svg PUBLIC "-//W3C//DTD SVG 20010904//EN"
 "http://www.w3.org/TR/2001/REC-SVG-20010904/DTD/svg10.dtd">
<svg version="1.0" xmlns="http://www.w3.org/2000/svg"
 width="400.000000pt" height="345.000000pt" viewBox="0 0 400.000000 345.000000"
 preserveAspectRatio="xMidYMid meet">

<g transform="translate(0.000000,345.000000) scale(0.100000,-0.100000)"
fill="#000000" stroke="none">
<path d="M1990 3422 c-59 -6 -70 -12 -70 -36 0 -56 -15 -66 -64 -41 -32 17
-71 11 -89 -15 -6 -9 -23 -22 -35 -29 -17 -9 -22 -19 -19 -33 7 -24 -1 -48
-15 -48 -6 0 -5 7 2 15 7 9 11 17 9 20 -3 2 -10 -4 -16 -15 -10 -15 -6 -26 23
-65 24 -31 41 -44 51 -41 12 5 14 1 9 -16 -18 -65 -18 -116 0 -149 11 -19 22
-37 27 -40 13 -10 29 -132 23 -178 -9 -69 -26 -122 -37 -116 -18 12 -69 -51
-71 -87 -3 -86 9 -122 44 -134 13 -4 28 -14 35 -23 15 -19 17 -67 3 -76 -5 -3
-10 -19 -10 -36 0 -35 -15 -38 -24 -5 -8 32 -36 40 -77 22 -19 -8 -56 -20 -83
-27 -29 -7 -80 -35 -125 -67 -92 -67 -162 -112 -173 -112 -4 0 -8 17 -8 38 0
28 -10 51 -40 91 -22 29 -40 58 -40 65 0 20 22 36 51 36 17 0 43 14 70 39 l44
38 -33 20 -32 20 21 19 c32 29 74 97 61 102 -6 2 -3 17 10 38 23 40 19 51 -12
34 -12 -6 -23 -10 -24 -8 -2 2 -8 40 -14 85 -13 97 -4 138 34 147 52 13 81
-33 54 -84 -8 -15 -6 -21 9 -30 11 -5 27 -7 36 -4 11 5 19 -2 28 -25 15 -40
48 -43 46 -3 -2 24 -2 24 -6 4 -4 -19 -7 -21 -19 -11 -8 6 -14 22 -14 35 0 25
-15 40 -25 24 -3 -5 -15 -10 -27 -10 -15 0 -18 4 -13 18 5 9 9 26 10 37 1 11
7 30 13 42 15 26 15 45 1 21 -14 -25 -28 -22 -22 5 4 21 4 21 -8 3 -11 -18
-12 -18 -24 5 -9 16 -23 24 -44 25 -28 2 -30 0 -14 -11 10 -8 20 -9 21 -4 4
11 22 2 22 -11 0 -5 -24 -7 -52 -6 -43 3 -49 2 -30 -7 31 -14 28 -30 -5 -23
-27 6 -27 6 -9 -9 26 -20 12 -31 -21 -16 -26 10 -27 10 -9 -4 11 -8 26 -15 33
-15 7 0 13 -5 13 -11 0 -6 -9 -9 -20 -6 -11 3 -18 1 -14 -4 3 -5 12 -9 20 -9
8 0 14 -5 14 -11 0 -7 -10 -9 -25 -5 -36 9 -31 -3 6 -16 26 -9 29 -12 15 -20
-9 -5 -21 -6 -28 -2 -7 5 -8 3 -3 -5 4 -7 16 -11 26 -8 12 3 19 0 19 -10 0
-10 -7 -13 -22 -9 -15 3 -14 1 5 -6 29 -13 31 -34 3 -32 -9 1 -16 -2 -16 -7 0
-5 9 -9 21 -9 12 0 19 -5 16 -12 -2 -7 -17 -12 -33 -11 -27 2 -28 1 -10 -12
23 -18 33 -19 41 -5 3 6 14 10 23 10 13 -1 10 -7 -13 -27 -16 -14 -34 -36 -40
-47 -5 -12 -30 -31 -55 -43 -28 -15 -37 -23 -24 -23 11 0 46 15 77 34 31 19
57 31 57 26 0 -20 -71 -79 -112 -93 l-43 -15 55 -1 c73 -2 87 -11 58 -38 -33
-29 -63 -43 -95 -43 -25 0 -31 6 -43 43 l-15 42 -73 7 c-56 6 -82 4 -109 -7
-47 -20 -156 -19 -193 0 -48 25 -39 41 43 75 29 13 42 45 35 83 -4 23 -4 23
34 10 39 -13 88 -9 88 8 0 5 -18 9 -40 9 -23 0 -55 7 -71 16 -62 32 -130 0
-100 -47 12 -21 12 -22 -21 -16 -31 6 -32 6 -14 -8 23 -17 35 -18 56 -5 12 8
12 11 -3 28 -22 24 -12 54 17 50 25 -4 50 -51 42 -81 -3 -15 -25 -32 -61 -50
-30 -15 -55 -31 -55 -36 0 -5 14 -22 31 -39 l31 -31 -20 -26 c-11 -14 -23 -39
-27 -54 -3 -16 -15 -38 -27 -51 -12 -12 -17 -25 -11 -29 19 -12 23 -41 6 -41
-13 0 -15 -8 -10 -45 4 -25 2 -47 -3 -50 -17 -10 -11 -25 10 -25 18 0 20 -7
22 -72 3 -104 1 -140 -6 -163 -4 -11 0 -8 8 7 18 31 51 44 70 29 7 -6 16 -8
19 -4 4 3 26 6 49 5 26 -1 48 4 60 15 17 15 18 15 18 -5 0 -15 6 -22 18 -22
21 0 52 30 52 50 0 10 3 10 15 0 8 -7 15 -19 15 -27 0 -10 10 -6 35 13 l35 26
6 -31 c8 -36 14 -38 39 -11 22 24 35 26 35 5 0 -21 8 -19 47 11 20 15 33 20
33 12 0 -8 5 -7 16 4 9 9 19 39 22 66 4 48 6 51 53 77 27 15 57 37 65 51 9 13
21 24 28 24 6 0 25 7 41 15 l30 15 -32 -28 c-18 -16 -33 -34 -33 -41 0 -7 -14
-24 -30 -38 -17 -14 -41 -44 -55 -67 -14 -23 -36 -53 -50 -66 -25 -23 -25 -26
-25 -181 l0 -158 44 -36 c52 -42 63 -65 42 -81 -14 -10 -14 -13 4 -29 22 -20
27 -55 8 -55 -7 0 -2 -6 12 -13 50 -25 16 -58 -45 -43 -17 4 -29 22 -47 67
-15 42 -43 84 -86 132 -70 79 -80 103 -62 157 10 31 10 45 -3 81 l-15 44 5
-65 5 -65 -21 23 c-18 18 -26 20 -42 11 -11 -5 -23 -17 -26 -25 -3 -9 -13 -12
-24 -9 -14 5 -22 -1 -31 -19 -6 -14 -19 -26 -28 -26 -10 0 -23 -6 -29 -14 -7
-8 -23 -17 -36 -20 -14 -4 -25 -11 -25 -16 0 -6 -6 -10 -13 -10 -8 0 -32 -12
-53 -28 -21 -15 -56 -36 -76 -47 -21 -11 -38 -23 -38 -27 0 -5 -7 -8 -15 -8
-8 0 -15 3 -15 6 0 12 24 49 44 67 l21 18 -23 -11 c-42 -21 -55 -56 -63 -170
-6 -91 -11 -117 -35 -159 -28 -53 -82 -109 -173 -183 -120 -96 -133 -238 -26
-282 27 -12 35 -21 35 -40 0 -19 -5 -26 -20 -26 -11 0 -23 7 -26 15 -8 19 -24
20 -24 1 0 -7 -6 -19 -14 -26 -12 -9 -17 -8 -27 8 -12 18 -14 19 -24 5 -16
-22 -43 -10 -51 23 -4 14 -1 50 6 79 7 29 10 59 7 66 -3 8 -6 1 -7 -16 0 -16
-6 -43 -13 -58 l-12 -29 -28 22 c-42 33 -51 66 -26 91 14 14 18 27 14 42 -15
49 -68 62 -102 25 -28 -32 -34 -66 -18 -104 12 -30 12 -34 -5 -39 -10 -3 -24
-13 -31 -21 -10 -12 -8 -18 9 -30 16 -11 20 -22 16 -38 -4 -18 3 -30 33 -55
38 -31 98 -55 114 -45 5 3 6 -9 3 -25 -6 -29 -5 -31 41 -43 30 -8 50 -20 53
-30 5 -21 23 -23 41 -5 10 10 15 8 26 -7 11 -15 21 -17 49 -12 20 4 36 11 36
16 0 6 11 10 24 10 16 0 27 7 31 21 5 16 10 18 21 8 9 -8 18 -8 27 -2 6 6 27
10 45 10 31 0 32 -2 27 -31 -3 -17 -1 -38 5 -46 8 -13 13 -13 41 2 18 11 40
16 55 12 17 -4 24 -2 24 9 0 8 7 20 16 28 11 9 14 26 12 58 -2 36 0 46 12 46
11 0 14 -9 12 -38 -4 -39 14 -57 40 -41 7 5 21 7 31 6 11 -2 17 3 17 15 0 11
7 28 15 39 14 19 14 18 32 -6 45 -63 138 -130 182 -130 11 0 26 -7 33 -16 29
-35 62 -60 116 -89 46 -24 57 -35 57 -55 0 -37 -39 -47 -122 -30 -38 7 -83 19
-101 27 -19 8 -41 13 -50 11 -37 -7 145 -53 211 -53 56 0 64 -2 50 -12 -9 -7
-14 -15 -11 -19 4 -3 16 4 28 16 l22 22 -7 -24 c-6 -22 -6 -22 9 -4 19 23 21
14 5 -16 -7 -12 -14 -16 -18 -10 -4 7 -13 5 -26 -5 -19 -15 -19 -15 5 -8 l25
6 -25 -20 c-14 -11 -21 -21 -17 -21 19 0 49 23 67 53 24 38 27 19 4 -24 -8
-17 -30 -37 -47 -44 -18 -8 -27 -14 -20 -15 44 -1 93 52 93 102 l0 22 16 -22
c25 -36 14 -83 -25 -109 -28 -19 -47 -23 -110 -23 -42 0 -93 5 -114 11 -22 6
-41 8 -44 5 -11 -11 86 -30 158 -30 79 -1 105 9 149 56 25 27 26 79 3 170 -15
58 -15 70 -3 93 12 23 19 26 47 22 17 -3 47 -12 65 -21 18 -8 65 -24 103 -36
39 -12 81 -26 95 -32 14 -5 66 -12 116 -15 103 -6 177 7 345 62 104 33 104 33
122 13 22 -26 21 -62 -3 -117 -11 -24 -21 -66 -22 -93 0 -41 4 -54 27 -78 16
-17 31 -28 34 -25 2 3 -8 18 -23 34 -23 24 -25 32 -17 54 13 33 27 35 35 4 8
-33 55 -77 80 -76 17 0 15 3 -10 14 -18 8 -38 28 -48 48 -23 49 -19 70 5 25
18 -36 59 -69 59 -49 0 5 -6 11 -14 14 -8 3 -20 16 -27 29 l-12 23 25 -22 c13
-13 28 -23 33 -23 4 0 -4 11 -19 25 -14 13 -26 32 -26 41 0 13 5 10 21 -10 11
-14 26 -26 32 -26 7 0 4 7 -5 14 -26 19 -22 26 10 17 31 -9 84 -3 240 29 99
21 122 22 178 13 81 -14 157 -56 149 -83 -4 -13 0 -20 15 -25 34 -11 34 0 0
39 -78 88 -207 106 -410 57 -85 -21 -154 -26 -184 -15 -9 4 -16 18 -16 33 0
24 8 31 75 61 55 24 80 41 91 61 11 21 22 29 42 29 44 0 126 46 172 97 45 48
54 47 67 -10 4 -19 11 -27 23 -25 9 2 24 -3 33 -10 13 -11 17 -10 27 8 6 12 8
34 5 51 -5 23 -3 29 10 29 13 0 16 -8 14 -37 -5 -55 20 -115 46 -111 11 1 30
-3 42 -10 38 -21 52 -15 55 24 3 32 7 37 31 40 17 2 35 -4 47 -16 15 -15 19
-16 24 -4 8 20 23 17 29 -6 3 -11 12 -20 21 -20 8 0 32 -11 53 -25 l37 -26 18
23 c13 18 19 21 29 11 19 -19 37 -16 44 7 4 13 15 20 33 20 57 0 72 10 65 41
-5 28 -4 29 32 29 28 0 50 9 87 37 43 33 47 39 32 50 -19 14 -10 33 17 33 10
0 19 3 19 8 -1 13 -27 42 -39 42 -14 0 -14 6 0 45 22 59 -8 115 -61 115 -21 0
-35 -8 -46 -25 -16 -25 -16 -27 6 -50 20 -21 21 -26 8 -50 -14 -28 -63 -63
-73 -53 -18 18 -16 126 3 185 l20 63 -25 27 c-34 39 -42 63 -48 146 -3 40 -8
88 -10 107 l-4 35 57 1 c111 0 178 61 176 163 0 69 -29 127 -93 192 -34 34
-45 52 -41 67 5 21 5 21 46 3 28 -13 43 -27 48 -44 6 -27 31 -57 46 -57 5 0 8
14 8 30 -1 17 5 42 12 56 11 20 12 29 2 44 -15 24 -16 80 -2 80 17 0 11 48 -8
62 -9 7 -26 26 -35 41 -20 31 -34 31 -19 0 5 -10 15 -34 22 -53 13 -40 23 -81
14 -62 -11 23 -24 12 -25 -20 -1 -53 -17 -3 -18 55 -1 27 -6 58 -12 70 -18 35
-50 66 -63 61 -7 -3 -19 2 -26 11 -12 15 -10 15 16 9 16 -4 39 -14 52 -22 13
-9 22 -10 22 -4 0 15 -26 28 -70 36 -19 3 -55 20 -80 37 -39 26 -52 30 -93 26
-57 -5 -95 -30 -119 -78 -49 -97 7 -199 191 -349 63 -51 63 -52 99 -97 41 -53
43 -102 7 -138 -26 -27 -70 -32 -95 -12 -8 7 -35 42 -58 79 -34 52 -59 77
-116 114 -85 55 -118 98 -141 179 -10 33 -21 65 -26 71 -9 11 -7 64 7 170 4
36 11 54 20 54 17 0 20 110 4 141 -7 13 -7 19 0 19 5 0 10 7 10 15 0 8 -4 15
-9 15 -5 0 -16 24 -26 53 -9 28 -24 60 -33 70 -15 17 -15 19 2 29 10 6 27 19
39 31 l20 20 -24 18 c-13 10 -39 26 -57 35 -30 14 -33 19 -30 56 3 47 27 70
55 52 25 -16 27 -31 4 -39 -29 -9 -26 -23 5 -31 35 -9 76 16 88 52 8 24 5 31
-23 56 -38 34 -91 37 -171 11 -45 -15 -56 -15 -83 -3 -21 10 -61 13 -118 12
-124 -4 -129 3 -119 184 3 48 -1 66 -16 86 -31 41 -77 68 -115 67 l-34 -1 38
-8 c21 -4 50 -16 65 -27 46 -34 53 -58 46 -163 -6 -87 -4 -97 15 -122 27 -33
64 -42 124 -28 38 8 55 7 83 -5 46 -19 73 -19 135 1 53 18 119 15 144 -6 34
-28 5 -100 -38 -100 -20 0 -21 4 -5 30 10 15 9 23 -6 39 -23 25 -51 26 -102 5
-23 -10 -52 -14 -72 -11 -23 4 -32 2 -29 -6 5 -17 85 -21 104 -6 13 11 14 9
12 -17 -4 -59 1 -69 51 -99 28 -16 50 -32 50 -36 0 -41 -151 -54 -217 -19 -29
15 -56 19 -112 18 l-73 -1 -20 -45 c-19 -43 -21 -44 -56 -39 -38 7 -106 63
-95 80 3 5 32 7 67 4 l61 -5 -35 15 c-51 22 -83 47 -103 82 l-18 31 62 -40
c34 -22 69 -40 78 -40 9 0 -2 10 -24 23 -22 12 -46 35 -55 51 -8 16 -28 42
-45 58 -23 21 -25 27 -10 22 11 -4 25 -11 32 -16 7 -6 22 -4 40 6 l28 14 -34
-1 c-19 -1 -36 3 -38 11 -3 7 5 12 19 13 17 1 18 3 6 6 -23 6 -23 33 -1 33 15
0 14 2 -3 15 -18 14 -18 14 11 15 l30 1 -25 10 -25 11 30 13 c30 13 30 13 5
15 l-25 1 23 11 c12 6 22 15 22 20 0 5 -10 4 -21 -3 -17 -9 -20 -8 -17 3 3 7
13 15 24 16 10 2 23 8 29 13 6 6 -3 7 -23 3 -21 -4 -32 -3 -32 5 0 6 6 11 14
11 8 0 18 5 22 11 4 8 0 9 -15 4 -38 -12 -48 8 -10 21 34 13 34 13 -16 8 l-50
-5 25 22 c24 21 24 21 3 15 -16 -5 -23 -3 -23 6 0 7 -12 0 -26 -16 -24 -27
-26 -27 -39 -10 -12 17 -13 16 -8 -11 5 -29 5 -29 -11 -10 -8 11 -16 15 -16
10 0 -6 4 -15 9 -20 5 -6 11 -30 14 -53 l5 -44 -34 6 c-27 6 -34 4 -34 -9 0
-9 -5 -26 -12 -38 -11 -21 -12 -21 -19 11 -9 42 2 80 44 157 25 48 39 62 67
72 19 7 27 12 18 12 -43 2 -70 -24 -109 -105 -32 -65 -40 -92 -37 -126 4 -55
30 -63 53 -18 13 25 22 31 43 28 26 -3 27 -2 24 44 -3 39 0 48 18 58 29 15 67
5 81 -22 8 -16 9 -35 1 -72 -6 -28 -14 -70 -17 -93 -4 -24 -9 -43 -11 -43 -3
0 -16 7 -29 16 -18 12 -25 13 -25 4 0 -19 38 -77 55 -84 8 -3 15 -10 15 -16 0
-6 -12 -3 -26 7 -27 17 -27 17 -19 -7 9 -29 37 -71 60 -90 20 -17 19 -30 -4
-30 -10 0 -24 -6 -30 -14 -10 -12 -5 -21 25 -50 20 -19 48 -37 63 -41 60 -15
65 -40 17 -92 -41 -47 -56 -75 -56 -107 0 -24 -15 -44 -22 -28 -4 9 -152 125
-211 164 -22 15 -64 34 -93 43 -29 8 -56 20 -59 25 -3 6 -17 10 -31 10 -19 0
-28 -7 -35 -30 -13 -36 -24 -32 -33 12 -14 70 2 114 51 137 12 6 31 29 42 52
22 44 20 77 -5 114 -8 11 -14 27 -14 36 0 10 -11 19 -29 22 -25 5 -31 13 -37
41 -6 32 -7 34 -22 19 -14 -14 -14 -17 0 -27 12 -9 13 -14 2 -23 -10 -10 -18
1 -39 56 -21 56 -25 83 -23 139 l3 70 20 -21 c16 -18 20 -34 18 -89 -1 -50 2
-68 13 -72 11 -4 12 -2 4 13 -7 13 -7 20 1 23 5 2 14 30 19 63 5 33 23 87 40
120 32 61 37 119 15 170 -8 18 -7 19 10 5 17 -14 17 -13 12 10 -4 14 -4 19 -1
13 9 -21 27 -14 53 18 18 23 21 33 12 42 -15 15 -14 30 2 21 10 -6 10 -4 0 7
-7 7 -13 21 -13 31 0 10 -7 18 -15 18 -8 0 -27 14 -42 30 -30 34 -44 37 -83
14 -39 -23 -56 -13 -72 43 l-14 48 -59 5 c-33 3 -71 4 -85 2z m85 -48 c14 -6
13 -8 -5 -21 -11 -8 -19 -22 -18 -30 2 -9 -3 -18 -9 -20 -8 -3 -13 5 -13 21 0
15 -7 29 -15 32 -8 4 -15 10 -15 15 0 10 50 12 75 3z m-90 -14 c-3 -5 1 -10 9
-10 9 0 16 -7 16 -15 0 -8 -7 -15 -15 -15 -8 0 -15 -7 -15 -15 0 -20 -16 -19
-24 1 -9 23 -8 26 6 18 8 -5 9 -2 4 11 -4 11 -2 22 6 27 17 10 20 10 13 -2z
m119 -12 c-4 -6 1 -17 10 -24 18 -13 13 -40 -5 -28 -5 3 -6 10 -3 16 4 6 -1 8
-14 4 -35 -12 -37 23 -2 37 22 8 22 8 14 -5z m-329 -54 c13 -6 14 -9 3 -16
-10 -7 -10 -11 0 -15 21 -8 13 -23 -12 -23 -21 0 -24 4 -21 28 2 15 4 28 4 30
1 3 8 2 26 -4z m565 -24 c10 -6 11 -10 3 -10 -7 0 -13 -5 -13 -11 0 -5 6 -7
13 -3 9 5 9 4 0 -6 -6 -7 -9 -19 -6 -27 5 -12 2 -13 -13 -6 -10 6 -25 8 -33 5
-8 -3 -12 1 -9 9 3 8 15 13 27 12 29 -4 26 5 -6 18 -22 8 -24 12 -13 19 19 12
31 12 50 0z m-550 -62 c0 -16 -3 -19 -11 -11 -6 6 -8 16 -5 22 11 17 16 13 16
-11z m236 -5 c-7 -7 -26 7 -26 19 0 6 6 6 15 -2 9 -7 13 -15 11 -17z m-256
-47 c0 -3 -4 -8 -10 -11 -5 -3 -10 -1 -10 4 0 6 5 11 10 11 6 0 10 -2 10 -4z
m121 -313 c-7 -37 -15 -88 -17 -112 -2 -25 -9 -50 -15 -55 -7 -8 -8 -6 -3 7 3
9 1 24 -6 32 -9 10 -9 27 -2 62 6 26 8 62 5 79 -3 22 1 38 13 53 30 34 39 10
25 -66z m220 -39 c-8 -30 -8 -51 -1 -70 6 -15 8 -29 5 -32 -12 -13 -19 14 -23
93 -3 63 -1 89 9 102 13 15 14 13 17 -17 2 -18 -1 -53 -7 -76z m-146 87 c3 -6
7 -44 9 -86 3 -66 1 -77 -15 -86 -17 -9 -19 -6 -19 33 0 24 -3 67 -6 96 -6 43
-4 52 9 52 9 0 18 -4 22 -9z m34 -43 c-1 -35 -2 -38 -8 -18 -7 23 -4 60 5 60
2 0 4 -19 3 -42z m46 -40 c8 -60 8 -67 4 -125 -2 -34 -6 -43 -21 -43 -17 0
-24 20 -19 58 1 6 -3 12 -10 12 -8 0 -9 3 0 14 6 7 14 41 17 75 4 33 10 61 14
61 4 0 11 -24 15 -52z m28 32 c3 -11 1 -23 -4 -26 -5 -3 -9 6 -9 20 0 31 6 34
13 6z m64 -17 c-3 -10 -5 -4 -5 12 0 17 2 24 5 18 2 -7 2 -21 0 -30z m80 -15
c-2 -13 -4 -5 -4 17 -1 22 1 32 4 23 2 -10 2 -28 0 -40z m437 37 c-4 -8 -10
-15 -15 -15 -4 0 -6 7 -3 15 4 8 10 15 15 15 4 0 6 -7 3 -15z m-754 -82 c-11
-17 -11 -17 -6 0 3 10 7 31 7 45 l2 27 4 -27 c2 -15 -1 -35 -7 -45z m30 -43
c0 -17 -17 -37 -25 -29 -2 2 -1 16 2 31 6 30 23 28 23 -2z m207 -2 c-3 -8 -6
-5 -6 6 -1 11 2 17 5 13 3 -3 4 -12 1 -19z m-36 -58 c5 0 9 -6 9 -13 0 -7 -9
-13 -21 -13 -15 0 -19 5 -15 21 3 11 7 31 7 45 2 19 3 18 6 -7 2 -18 8 -33 14
-33z m-113 -19 c-6 -2 -14 3 -19 10 -6 10 -9 11 -9 2 0 -19 -17 -16 -24 4 -4
10 -4 14 0 11 3 -4 13 0 22 8 14 14 17 14 28 -8 8 -15 9 -24 2 -27z m-76 17
c-9 -9 -15 -9 -24 1 -9 10 -9 12 -1 7 6 -3 15 -1 18 5 4 5 10 8 13 4 3 -3 0
-11 -6 -17z m-67 -8 c-3 -5 -10 -10 -16 -10 -5 0 -9 5 -9 10 0 6 7 10 16 10 8
0 12 -4 9 -10z m312 -12 c-3 -8 -6 -5 -6 6 -1 11 2 17 5 13 3 -3 4 -12 1 -19z
m-74 -28 c20 -11 43 -19 49 -18 9 2 12 -8 11 -32 -3 -46 4 -75 22 -94 15 -15
11 -46 -7 -46 -5 0 -6 6 -2 13 6 10 4 10 -7 0 -7 -7 -19 -13 -26 -13 -11 0
-11 4 -2 22 11 20 9 20 -20 -5 -37 -30 -77 -35 -120 -12 -16 8 -32 11 -35 7
-4 -3 -4 1 -1 10 4 9 2 19 -4 23 -6 3 -11 14 -11 23 1 12 6 8 16 -10 26 -48
87 -66 97 -28 3 11 9 19 14 18 4 -2 9 2 11 7 2 6 9 13 17 17 18 10 8 48 -20
74 -25 23 -56 28 -48 8 3 -9 -2 -11 -18 -7 -21 6 -22 4 -17 -38 4 -39 3 -45
-13 -45 -15 0 -19 8 -19 37 0 44 25 69 78 79 l37 8 -38 1 c-45 1 -87 -36 -87
-77 0 -18 -4 -23 -16 -18 -12 4 -14 1 -9 -14 4 -11 2 -20 -4 -20 -6 0 -11 7
-11 15 0 8 -5 15 -11 15 -7 0 -5 -10 5 -25 19 -29 18 -29 -21 -14 -39 16 -66
18 -81 6 -11 -9 -12 -2 -8 36 3 28 2 47 -4 47 -15 0 -12 26 4 39 16 14 28 1
43 -44 8 -25 15 -30 43 -30 27 0 34 4 35 22 1 12 -2 20 -7 17 -4 -3 -8 -11 -8
-19 0 -21 -40 -6 -50 19 -6 17 -3 22 14 28 34 10 68 9 61 -2 -3 -5 -2 -10 3
-10 6 0 8 -10 5 -22 -4 -18 -1 -16 12 7 17 31 35 45 70 57 32 10 38 9 78 -12z
m148 -30 c10 -6 19 -18 19 -28 1 -15 2 -15 13 -2 7 8 20 16 30 16 14 2 17 -7
17 -47 0 -37 -4 -49 -15 -49 -8 0 -15 6 -15 13 0 6 -11 -5 -23 -26 -22 -36
-25 -38 -40 -23 -14 15 -16 14 -20 -2 -4 -13 -5 -12 -6 5 0 12 -5 25 -11 28
-17 10 -11 35 15 63 16 17 21 30 15 36 -11 11 -13 26 -4 26 3 0 14 -5 25 -10z
m-35 -13 c9 -9 -16 -38 -27 -31 -15 9 -10 42 6 40 8 -1 17 -5 21 -9z m-426
-42 c0 -8 -4 -17 -10 -20 -6 -4 -10 5 -10 20 0 15 4 24 10 20 6 -3 10 -12 10
-20z m270 -3 c0 -13 -12 -22 -22 -16 -10 6 -1 24 13 24 5 0 9 -4 9 -8z m-54
-56 c3 -8 14 -13 25 -11 10 2 19 0 19 -6 0 -13 -32 -11 -52 5 -20 15 -23 26
-8 26 6 0 13 -6 16 -14z m-102 -27 c-6 -10 -67 -5 -86 7 -20 13 43 22 69 11
12 -6 20 -14 17 -18z m159 -66 c-18 -2 -48 -2 -65 0 -18 2 -4 4 32 4 36 0 50
-2 33 -4z m-295 -99 c3 -23 -19 -34 -71 -34 -17 0 -53 -19 -96 -50 -38 -27
-74 -50 -80 -50 -7 0 -23 -11 -36 -24 -13 -13 -47 -40 -76 -59 -48 -32 -54
-34 -66 -19 -7 9 -13 20 -13 23 0 9 208 153 257 178 23 11 59 23 82 27 22 4
46 13 52 21 17 19 43 12 47 -13z m572 -9 c7 -8 28 -17 49 -21 20 -4 50 -13 66
-22 25 -12 127 -84 145 -102 3 -3 28 -23 55 -44 28 -22 54 -43 58 -47 5 -3 3
-16 -4 -27 -12 -19 -14 -19 -64 14 -28 19 -62 48 -74 64 -12 17 -28 30 -35 30
-13 0 -66 39 -121 89 -11 10 -40 20 -64 24 -49 6 -66 19 -58 41 8 20 31 21 47
1z m160 -160 c7 -8 21 -15 31 -15 10 0 23 -9 29 -20 6 -11 35 -38 65 -60 50
-37 53 -42 48 -73 -3 -21 1 -46 11 -65 16 -32 36 -43 36 -21 0 7 12 0 26 -15
33 -32 44 -33 44 -3 1 21 2 20 30 -10 35 -39 40 -40 40 -10 0 36 10 39 45 12
l32 -24 14 27 c13 26 13 27 17 4 2 -12 16 -29 32 -37 38 -20 40 -19 40 12 l0
27 16 -22 c12 -17 25 -23 57 -23 23 0 56 1 73 1 39 0 58 -21 77 -86 32 -110
59 -145 168 -217 41 -28 75 -61 96 -93 60 -94 71 -104 114 -104 56 0 89 34 89
93 0 59 -31 101 -161 213 -57 50 -117 109 -134 133 -26 37 -30 51 -30 111 0
58 4 72 24 94 48 51 131 58 178 14 23 -21 32 -45 13 -33 -5 3 -10 0 -10 -7 0
-7 -3 -30 -6 -50 -5 -25 -3 -38 5 -38 6 0 11 10 11 23 0 12 5 29 10 37 7 10
10 -6 10 -56 0 -63 3 -76 31 -114 17 -23 39 -45 50 -47 10 -3 19 -9 19 -14 0
-12 -63 11 -77 29 -12 15 -18 9 -13 -13 1 -6 -3 -5 -10 1 -6 6 -14 33 -18 60
-4 27 -11 47 -16 46 -19 -8 -26 28 -15 78 13 63 3 79 -59 87 -34 5 -44 1 -66
-20 -63 -63 -15 -160 139 -277 146 -112 197 -180 198 -270 2 -98 -66 -153
-181 -149 -38 1 -65 -1 -63 -7 18 -45 21 -64 21 -127 0 -90 12 -132 47 -169
l27 -28 -18 -50 c-11 -29 -17 -72 -16 -107 5 -147 5 -154 -10 -163 -23 -15
-30 -12 -30 10 0 26 -12 25 -28 -1 -11 -16 -16 -18 -28 -9 -8 7 -14 22 -15 34
0 21 0 21 -16 -2 -17 -24 -39 -29 -46 -9 -8 22 12 45 48 57 42 14 65 52 65
110 0 68 -25 110 -123 205 -129 124 -149 167 -151 318 -2 119 -10 146 -52 173
-37 25 -39 11 -4 -24 30 -31 39 -52 20 -52 -5 0 -10 5 -10 10 0 6 -8 13 -17
17 -10 3 -41 23 -70 44 -29 22 -56 39 -61 39 -5 0 -17 9 -27 20 -10 11 -24 20
-30 20 -7 0 -18 7 -25 15 -7 8 -21 15 -31 15 -12 0 -19 7 -19 20 0 19 -36 47
-47 36 -3 -3 -14 6 -25 19 -24 31 -42 32 -62 3 -16 -22 -16 -22 -16 10 0 19 5
42 11 53 5 11 8 28 6 37 -3 12 -9 6 -21 -21 -13 -29 -15 -52 -10 -103 l7 -66
-63 -59 c-44 -41 -73 -80 -99 -131 -33 -67 -39 -73 -69 -76 -34 -3 -66 13 -56
29 3 5 16 9 30 9 13 0 24 5 24 10 0 6 -4 10 -10 10 -20 0 -9 40 16 57 26 17
26 17 5 25 -18 6 -20 11 -11 28 6 11 26 30 44 42 57 37 61 50 64 210 4 148 4
148 -23 179 -14 18 -35 49 -45 69 -11 21 -33 50 -50 66 -16 16 -30 34 -30 41
0 6 -14 23 -31 37 -17 14 -26 26 -21 26 5 0 15 -7 22 -15z m-594 -63 c-5 -14
2 -21 29 -31 19 -7 47 -28 61 -47 l27 -35 29 35 c19 23 41 38 63 42 25 4 35
12 35 25 0 16 4 17 33 7 39 -13 58 -28 52 -38 -3 -4 2 -13 10 -20 8 -7 15 -18
15 -26 0 -7 10 -20 22 -28 32 -22 15 -31 -23 -12 -18 9 -41 16 -52 16 -12 0
-30 9 -42 20 -17 16 -24 17 -45 7 -14 -7 -31 -27 -39 -45 -14 -30 -18 -32 -63
-32 -42 0 -48 3 -48 21 0 12 -14 34 -31 50 l-32 30 -22 -21 c-12 -11 -35 -20
-53 -20 -17 0 -34 -4 -37 -10 -3 -5 -17 -10 -31 -10 -23 0 -22 2 16 41 22 23
55 45 73 50 31 8 30 8 -7 4 -31 -3 -37 -2 -27 8 11 11 65 34 84 36 5 1 6 -7 3
-17z m-370 -18 c12 -49 -4 -161 -40 -268 -20 -59 -39 -136 -42 -172 -4 -35 -9
-64 -12 -64 -4 0 -21 14 -39 32 l-33 32 0 148 c0 142 1 148 24 171 13 13 36
43 51 67 27 43 62 79 77 80 4 0 11 -12 14 -26z m1024 -29 c7 -14 17 -25 22
-25 4 0 8 -6 8 -12 0 -7 18 -37 40 -66 l40 -53 -6 -142 c-6 -141 -7 -142 -37
-174 -46 -49 -57 -44 -57 30 0 34 -7 87 -16 117 -41 143 -57 285 -38 334 9 24
29 19 44 -9z m1006 -83 c8 -4 11 -34 10 -80 -1 -60 2 -75 17 -83 10 -6 17 -22
17 -40 0 -19 10 -39 26 -56 45 -45 19 -35 -51 21 -81 65 -125 125 -125 173 0
54 15 73 58 73 20 0 42 -4 48 -8z m180 -89 c8 -18 13 -52 13 -75 -1 -24 -3
-34 -5 -23 -20 102 -27 125 -40 135 -7 7 -14 18 -14 24 1 15 29 -23 46 -61z
m-1871 24 c18 -15 24 -28 20 -40 -10 -25 -45 -22 -45 4 0 18 -2 19 -15 9 -21
-18 -19 -29 10 -40 14 -5 25 -16 25 -24 0 -7 8 -17 17 -20 13 -5 14 -9 4 -19
-9 -9 -14 -9 -22 3 -6 10 -7 -2 -3 -39 6 -44 4 -53 -7 -49 -10 3 -14 21 -14
56 1 28 -3 48 -7 46 -4 -3 -8 -30 -8 -60 0 -30 -4 -54 -9 -54 -5 0 -12 -10
-15 -22 -7 -22 -7 -22 -17 -3 -7 15 -8 12 -3 -12 3 -20 1 -33 -5 -33 -9 0 -16
24 -24 95 -3 19 -5 13 -6 -18 0 -26 6 -64 14 -84 17 -41 18 -43 7 -43 -5 0
-14 10 -21 23 -8 16 -10 17 -5 2 4 -11 8 -35 9 -53 1 -30 0 -31 -16 -16 -48
43 -82 210 -59 293 27 100 132 153 195 98z m214 14 c2 -1 -2 -8 -9 -16 -8 -9
-30 -15 -57 -15 -24 0 -42 -4 -39 -9 3 -5 -1 -14 -9 -21 -12 -10 -16 -9 -21 5
-4 9 -1 20 6 25 8 5 9 9 1 14 -26 16 -7 23 57 20 37 -1 69 -3 71 -3z m1597
-26 c7 -19 14 -48 14 -65 0 -28 -2 -30 -20 -20 -16 9 -20 21 -20 65 0 30 2 55
6 55 3 0 12 -16 20 -35z m-1429 14 c76 -29 107 -91 99 -204 -6 -79 -30 -147
-74 -204 l-19 -23 0 33 c0 18 -5 35 -11 37 -7 2 -3 20 10 49 24 55 21 152 -6
178 -15 15 -16 14 -16 -12 0 -20 3 -24 9 -14 15 24 24 -70 11 -117 -14 -54
-23 -54 -16 1 3 23 3 34 0 25 -12 -39 -24 -15 -18 35 3 28 1 63 -4 77 -8 19
-9 12 -5 -31 4 -36 2 -59 -6 -63 -8 -5 -11 12 -13 56 l-1 63 -6 -54 c-3 -30
-12 -56 -18 -59 -10 -3 -11 12 -7 60 8 88 8 88 53 88 31 0 47 -7 75 -34 20
-18 36 -30 36 -25 0 4 -5 11 -11 14 -6 4 -8 13 -5 21 3 8 -1 14 -9 14 -9 0
-16 10 -16 23 -1 16 -2 18 -6 5 -7 -28 -22 -21 -32 15 -7 24 -9 26 -10 10 -1
-32 -17 -37 -35 -11 l-16 22 0 -22 c0 -15 -6 -22 -20 -22 -13 0 -20 -7 -20
-20 0 -11 -4 -20 -10 -20 -13 0 -13 27 0 35 6 3 7 17 4 30 -5 19 0 27 23 39
34 18 53 19 90 5z m1461 -40 c-3 -8 -7 -3 -11 10 -4 17 -3 21 5 13 5 -5 8 -16
6 -23z m-1630 4 c-2 -10 -9 -17 -15 -16 -6 1 -10 -5 -9 -15 1 -18 -25 -24 -31
-7 -4 13 33 55 48 55 6 0 9 -8 7 -17z m-148 -7 c0 -8 14 -30 30 -48 33 -36 37
-48 16 -48 -8 0 -24 15 -36 33 -12 17 -19 23 -15 12 3 -11 7 -24 8 -30 1 -5 9
-16 17 -22 13 -12 13 -15 -2 -27 -12 -8 -18 -26 -17 -47 1 -31 2 -32 9 -9 8
29 15 18 25 -45 l7 -40 -28 30 c-20 21 -26 24 -20 10 19 -48 15 -46 -18 10
-28 47 -35 67 -30 90 8 38 12 42 27 26 9 -10 8 -15 -7 -27 -11 -8 -14 -14 -7
-14 7 0 20 7 28 16 13 13 14 17 3 24 -13 8 -24 95 -14 112 8 13 24 9 24 -6z
m190 -22 c0 -20 -21 -28 -32 -13 -8 11 -9 11 -5 -2 3 -9 -6 -29 -21 -46 -15
-16 -27 -35 -27 -43 0 -21 -23 -23 -29 -3 -4 15 -4 15 -3 -2 1 -11 -2 -26 -6
-32 -5 -7 -4 -13 2 -13 5 0 11 5 13 12 2 6 9 8 16 4 7 -4 11 -28 9 -61 -1 -29
-5 -51 -8 -49 -9 5 -19 -22 -19 -49 0 -12 9 -46 20 -75 27 -70 25 -93 -8 -125
l-28 -27 -28 29 c-33 34 -32 58 5 135 15 32 20 57 16 83 -16 111 -20 134 -28
139 -12 7 -11 24 1 24 6 0 10 -7 10 -16 0 -8 5 -12 10 -9 8 5 7 11 -1 21 -15
18 4 44 32 44 11 0 19 5 19 11 0 5 13 24 30 42 16 18 30 38 30 46 0 11 3 11
15 1 8 -7 15 -18 15 -26z m-95 15 c-4 -6 -13 -8 -21 -5 -22 8 -16 -10 8 -26
12 -8 18 -19 14 -26 -9 -15 -36 -16 -36 -1 0 7 -8 18 -17 25 -17 13 -17 15 1
29 23 17 61 20 51 4z m-132 -34 c4 -8 2 -17 -3 -20 -6 -4 -10 3 -10 14 0 25 6
27 13 6z m1830 -38 c3 -22 2 -35 -4 -32 -5 4 -9 22 -9 42 0 45 5 40 13 -10z
m-1609 8 c3 -8 -4 -21 -17 -30 -12 -8 -17 -15 -12 -15 5 0 4 -5 -3 -12 -9 -9
-15 -9 -24 1 -11 10 -10 15 3 24 8 7 18 20 22 30 8 21 23 22 31 2z m36 -20 c0
-8 -4 -15 -9 -15 -5 0 -8 -12 -6 -27 2 -19 -12 -55 -41 -107 -49 -87 -54 -122
-23 -157 11 -13 18 -19 15 -12 -4 7 8 6 32 -5 34 -14 38 -19 28 -35 -19 -31
-94 -36 -83 -4 2 6 -2 26 -10 44 -17 41 -17 110 0 116 9 3 9 9 0 25 -15 25 -6
92 13 99 8 3 14 11 14 19 0 8 5 14 10 14 6 0 10 -10 10 -22 0 -18 2 -20 9 -9
6 9 5 21 -1 31 -8 13 -6 22 8 38 23 25 34 27 34 7z m1669 -75 c1 -13 0 -13 -9
0 -5 8 -9 24 -9 35 l0 20 9 -20 c5 -11 9 -27 9 -35z m-1759 15 c0 -8 -4 -15
-9 -15 -13 0 -22 16 -14 24 11 11 23 6 23 -9z m1740 -75 l-9 -35 2 38 c2 29
-1 37 -13 37 -22 0 -30 9 -23 27 5 12 10 10 29 -9 20 -20 22 -28 14 -58z
m-2532 -64 c41 -44 67 -83 82 -123 12 -32 27 -64 33 -71 30 -36 101 -37 112
-1 6 19 9 18 41 -8 50 -40 74 -64 114 -111 19 -23 43 -45 52 -48 10 -3 18 -9
18 -14 0 -5 -15 -4 -32 2 -45 13 -234 12 -321 -2 -40 -7 -96 -22 -125 -33
l-52 -21 -20 22 c-22 24 -56 28 -107 13 -71 -20 -66 41 12 144 25 33 55 79 66
103 19 39 20 44 6 66 -14 21 -34 32 -89 50 -27 8 -21 26 7 26 15 0 36 11 49
25 13 14 30 25 39 25 9 0 19 5 22 10 13 21 34 8 93 -54z m1562 5 c0 -5 10 -13
23 -17 12 -4 28 -15 35 -25 7 -10 24 -19 39 -21 43 -5 38 -26 -9 -38 -53 -15
-78 -36 -78 -67 0 -20 16 -59 30 -73 3 -3 12 -17 20 -32 8 -15 28 -48 44 -74
15 -25 29 -61 30 -78 1 -34 -7 -36 -90 -21 -35 6 -45 4 -62 -13 l-20 -20 -76
29 c-115 45 -222 62 -354 57 l-114 -4 35 18 c19 9 51 36 70 58 19 23 56 54 82
71 l46 29 26 -20 c30 -23 42 -24 78 -8 26 12 65 73 65 101 0 21 141 157 162
157 10 0 18 -4 18 -9z m-1731 -65 c45 -21 48 -40 18 -98 -15 -29 -48 -82 -72
-117 -71 -102 -57 -156 34 -132 54 14 81 7 81 -20 0 -23 -46 -37 -72 -20 -16
10 -18 8 -18 -14 0 -18 -5 -25 -20 -25 -11 0 -20 5 -20 10 0 6 -4 10 -10 10
-5 0 -10 -11 -10 -25 0 -30 -13 -32 -48 -4 -20 15 -34 19 -63 14 -51 -9 -79 8
-79 46 0 17 6 32 15 36 20 7 45 55 45 85 0 13 7 36 15 52 9 16 14 30 13 32 -2
1 -28 -13 -58 -32 -52 -33 -126 -62 -134 -53 -2 2 2 30 8 62 9 48 14 57 31 57
12 0 37 16 55 35 36 37 82 65 107 65 7 0 16 7 19 15 4 8 15 15 25 15 11 0 22
6 25 14 6 16 72 11 113 -8z m847 -48 c-9 -17 -16 -39 -16 -48 0 -26 -36 -31
-65 -8 -29 23 -32 38 -7 38 10 0 27 7 40 15 20 15 21 15 16 -2 -5 -16 -3 -15
11 2 9 11 19 31 22 45 6 19 8 21 11 8 2 -10 -4 -32 -12 -50z m1091 -23 c21
-19 46 -35 56 -35 9 0 41 -23 69 -50 29 -28 62 -52 73 -54 16 -2 21 -14 27
-61 4 -32 6 -60 4 -63 -8 -7 -98 38 -137 69 -42 33 -58 34 -40 1 6 -12 11 -35
11 -52 0 -34 20 -79 44 -99 23 -19 20 -48 -7 -66 -18 -11 -31 -12 -60 -4 -32
8 -41 7 -66 -12 -32 -24 -56 -17 -48 13 4 14 2 18 -9 14 -8 -3 -21 -9 -29 -12
-11 -5 -15 1 -15 21 0 22 -3 25 -21 20 -32 -10 -69 3 -69 24 0 26 17 30 76 18
28 -6 58 -7 67 -4 29 11 21 66 -18 127 -56 88 -93 169 -88 190 5 19 41 34 103
44 14 2 28 4 32 5 4 0 24 -15 45 -34z m-2167 -171 c0 -31 -16 -64 -42 -85 -26
-20 -27 -77 -2 -96 11 -9 37 -13 64 -11 43 2 90 -16 90 -35 0 -14 -134 -69
-169 -69 -18 0 -41 7 -49 16 -15 15 -15 17 6 32 24 17 29 43 10 62 -15 15 -64
16 -73 2 -3 -5 -18 -10 -31 -10 -24 0 -25 -2 -19 -39 6 -36 4 -40 -17 -43 -15
-2 -23 -10 -23 -23 0 -12 -8 -21 -20 -23 -38 -7 -48 -23 -24 -40 14 -10 19
-21 15 -37 -5 -18 0 -25 22 -33 15 -6 41 -13 57 -14 29 -3 29 -3 8 -15 -12 -7
-46 -19 -77 -27 l-56 -15 -50 32 c-56 36 -75 75 -64 131 6 35 59 126 73 126 4
0 16 8 27 18 10 9 36 30 57 46 21 15 54 50 74 77 31 43 39 49 71 49 21 1 57
12 82 25 57 30 60 30 60 -1z m2313 -74 c30 -16 65 -30 79 -30 20 0 33 -11 57
-47 17 -27 66 -80 110 -120 61 -56 82 -83 95 -119 31 -93 16 -134 -63 -171
l-54 -26 -69 24 c-37 13 -68 26 -68 30 0 3 23 9 51 12 60 7 66 11 50 31 -9 11
-6 18 16 36 27 21 27 22 9 36 -11 8 -26 14 -33 14 -7 0 -13 11 -13 26 0 14 -4
23 -9 20 -5 -4 -16 -4 -24 -1 -15 6 -12 51 4 61 17 10 9 24 -13 24 -13 0 -32
7 -42 15 -56 42 -117 -14 -66 -60 46 -41 -47 -63 -113 -26 -18 10 -48 26 -67
36 l-34 18 23 18 c19 16 33 18 73 13 39 -5 52 -3 68 11 26 24 25 63 -2 92 -21
23 -42 113 -26 113 4 0 32 -13 61 -30z m-1330 -56 c29 -14 67 -40 84 -57 31
-29 32 -32 16 -49 -13 -15 -14 -22 -4 -45 8 -18 9 -29 1 -37 -15 -15 -12 -52
5 -66 14 -12 13 -16 -6 -36 -22 -23 -22 -24 -4 -44 17 -19 17 -20 -1 -26 -19
-7 -116 -91 -122 -106 -2 -5 10 -8 27 -8 42 0 81 -17 81 -35 0 -20 -19 -19
-130 10 -234 62 -315 84 -320 86 -3 1 8 4 25 8 33 7 44 33 24 57 -9 12 -23 14
-50 10 -25 -4 -40 -1 -48 8 -15 18 -72 29 -105 20 -32 -8 -59 -49 -52 -78 6
-25 48 -49 71 -40 8 3 17 14 20 25 16 49 40 0 30 -59 -12 -69 -68 -112 -145
-112 -50 0 -67 13 -31 25 11 3 22 12 25 20 3 8 14 15 25 15 52 0 67 32 31 65
-17 15 -24 16 -46 6 -20 -9 -30 -9 -41 1 -8 6 -30 11 -48 10 -25 -2 -36 3 -49
22 -27 42 -21 56 24 56 45 0 58 16 41 49 -11 19 -8 21 29 27 34 6 40 10 40 31
0 14 4 21 10 18 6 -3 10 -15 10 -25 0 -30 20 -34 51 -11 15 11 40 21 54 21 30
0 29 -2 10 43 -22 53 -19 101 8 133 22 26 25 26 46 12 19 -13 20 -17 6 -28 -8
-7 -15 -18 -15 -24 0 -6 -9 -17 -20 -24 -28 -17 -25 -38 9 -52 23 -9 33 -9 50
2 19 11 23 11 32 -5 7 -12 15 -15 22 -9 22 17 59 21 79 9 16 -10 22 -8 38 11
10 12 23 22 29 22 19 0 23 21 7 39 -36 40 10 67 59 35 l24 -16 -26 -22 c-30
-26 -24 -46 13 -46 13 0 24 -3 25 -7 3 -30 9 -48 19 -51 28 -10 42 -36 36 -70
-7 -43 -29 -68 -73 -83 -51 -17 -122 17 -123 59 0 9 6 9 24 -3 59 -39 122 49
64 89 -29 21 -77 20 -106 0 -21 -15 -25 -15 -41 0 -21 19 -61 21 -61 3 0 -7
-10 -17 -22 -22 -13 -6 -24 -17 -26 -26 -4 -24 27 -51 52 -45 17 4 26 -2 38
-22 9 -15 32 -42 51 -60 28 -27 45 -34 90 -39 51 -5 61 -3 110 27 32 19 64 49
80 75 36 56 53 156 35 199 -14 35 -76 126 -86 126 -4 0 -18 9 -32 20 -35 28
-9 25 53 -6z m310 -13 c-117 -85 -153 -204 -94 -318 25 -50 97 -111 138 -119
71 -13 147 18 191 79 16 23 29 31 53 31 19 1 36 8 43 19 9 15 6 22 -14 39 -14
11 -24 25 -23 29 5 14 -41 10 -64 -6 -18 -13 -22 -12 -38 5 -25 27 -88 27
-115 0 -24 -24 -25 -47 -3 -72 20 -22 51 -23 75 -1 17 15 18 15 18 -5 0 -51
-92 -79 -150 -45 -54 31 -69 115 -25 135 13 6 28 24 34 39 7 22 16 29 35 29
19 0 26 5 26 20 0 10 -7 23 -15 28 -35 19 22 60 62 45 18 -7 16 -42 -2 -49
-21 -9 -19 -32 5 -39 11 -3 24 -15 30 -25 8 -14 18 -17 50 -13 25 4 46 1 55
-7 13 -11 19 -11 32 3 14 14 18 14 38 1 17 -11 29 -12 49 -5 30 12 33 23 10
41 -8 8 -22 29 -30 48 -12 29 -12 37 -2 44 16 10 20 10 34 0 35 -23 43 -90 19
-149 -20 -46 -19 -52 5 -46 12 3 31 -5 51 -21 37 -32 47 -32 51 -4 2 12 9 24
17 26 10 3 12 -1 9 -16 -5 -17 0 -21 33 -26 43 -7 44 -8 27 -35 -19 -31 -3
-51 42 -51 46 0 51 -13 19 -54 -18 -22 -27 -26 -51 -21 -17 4 -35 2 -44 -6
-12 -10 -20 -9 -39 1 -47 25 -99 -22 -63 -58 7 -7 19 -12 28 -12 8 -1 31 -14
50 -30 l34 -30 -42 0 c-66 0 -106 22 -138 75 -23 40 -26 52 -18 83 9 36 34 57
34 28 0 -20 36 -39 60 -31 35 11 44 42 23 78 -17 28 -25 32 -69 35 -38 2 -54
-2 -69 -16 -16 -15 -25 -17 -48 -8 -19 7 -33 7 -45 0 -38 -24 -20 -70 23 -58
13 4 16 3 10 -3 -5 -5 -41 -15 -80 -22 -38 -8 -95 -20 -125 -27 -52 -14 -154
-35 -227 -48 -18 -3 -33 -1 -33 4 0 16 43 40 71 40 60 0 60 9 1 66 -31 29 -63
53 -69 54 -17 0 -16 10 4 32 15 17 15 19 -2 32 -18 13 -18 15 -3 47 12 24 14
38 6 52 -7 13 -6 28 2 48 11 25 10 32 -4 48 -15 16 -14 19 7 38 20 19 63 43
127 71 47 20 53 12 13 -17z m-476 -473 c171 -50 183 -52 298 -52 104 0 140 5
273 38 84 20 182 40 218 43 l64 6 0 -27 c0 -36 22 -87 49 -110 l22 -20 -108
-26 c-60 -15 -169 -46 -243 -69 -74 -22 -171 -46 -215 -53 -104 -15 -182 1
-402 79 -127 45 -163 61 -167 77 -3 12 -1 25 3 29 13 13 31 -1 31 -24 0 -33
27 -21 34 16 8 40 22 43 91 20 l40 -13 -49 1 c-56 2 -65 -9 -37 -44 l19 -24
-5 29 c-5 26 -4 28 18 21 13 -4 43 -23 67 -42 44 -36 44 -36 56 20 7 29 13 32
36 16 11 -8 12 -12 3 -16 -19 -7 -16 -31 5 -42 13 -7 22 -7 29 0 7 7 16 1 27
-16 21 -32 36 -24 36 21 0 33 1 34 39 34 22 0 43 -5 46 -10 4 -7 -2 -9 -19 -4
-33 8 -50 -24 -22 -40 10 -6 27 -19 38 -28 32 -27 38 -22 38 26 0 26 5 46 13
49 25 9 -1 17 -89 27 -49 5 -177 30 -284 55 -224 52 -200 48 -200 35 0 -5 7
-10 15 -10 8 0 15 -5 15 -11 0 -6 -7 -9 -15 -6 -24 10 -25 -7 -4 -42 11 -18
18 -35 16 -37 -2 -3 -35 4 -73 14 l-68 19 27 18 c33 21 57 64 60 106 2 31 2
31 49 25 27 -4 128 -30 225 -58z m-941 -34 c-4 -9 -9 -15 -11 -12 -3 3 -3 13
1 22 4 9 9 15 11 12 3 -3 3 -13 -1 -22z m771 -30 c-9 -9 -28 6 -21 18 4 6 10
6 17 -1 6 -6 8 -13 4 -17z m193 -38 c0 -8 -7 -16 -15 -20 -17 -6 -18 -4 -9 18
8 20 24 21 24 2z m1504 -2 c9 -24 7 -28 -9 -14 -17 14 -20 30 -6 30 5 0 12 -7
15 -16z m-1364 -30 c0 -17 -22 -14 -28 4 -2 7 3 12 12 12 9 0 16 -7 16 -16z
m-399 -15 c38 -12 69 -25 69 -30 0 -16 -27 -21 -49 -9 -31 16 -25 -3 7 -22 19
-12 22 -18 10 -18 -9 0 -20 5 -23 10 -12 20 -21 10 -22 -25 0 -19 4 -35 9 -35
5 0 6 5 3 10 -7 12 2 12 30 0 19 -8 19 -9 -3 -9 -27 -1 -20 -21 8 -21 11 0 22
-12 29 -31 17 -48 13 -58 -8 -23 -25 41 -68 73 -158 118 -40 20 -78 46 -84 58
-6 13 -8 20 -4 16 4 -4 18 -3 31 2 18 7 32 4 58 -11 26 -15 40 -18 52 -11 15
8 13 12 -14 26 -18 9 -32 19 -32 21 0 9 21 5 91 -16z m1119 -24 c-7 -8 -21
-15 -31 -15 -11 0 -19 -4 -19 -9 0 -17 38 -23 62 -10 28 15 78 19 78 7 0 -5 5
-6 10 -3 6 3 10 1 10 -5 0 -14 -54 -46 -125 -73 -39 -14 -76 -38 -107 -69 -27
-26 -48 -46 -48 -44 0 2 7 20 15 40 10 22 22 36 33 36 10 0 27 7 38 15 22 17
12 20 -18 4 -11 -6 -22 -8 -25 -5 -4 3 7 11 24 16 23 8 31 17 31 35 0 23 -2
23 -21 10 -25 -17 -37 -19 -37 -5 0 6 6 10 14 10 7 0 19 7 26 15 14 17 7 19
-20 5 -15 -8 -21 -6 -29 7 -9 16 -2 20 57 35 89 22 98 22 82 3z m-613 -1 c-3
-3 -12 -4 -19 -1 -8 3 -5 6 6 6 11 1 17 -2 13 -5z m643 -8 c0 -2 -7 -7 -16
-10 -8 -3 -12 -2 -9 4 6 10 25 14 25 6z m-1104 -67 c8 -14 -10 -11 -32 6 -18
13 -18 14 4 8 12 -3 25 -9 28 -14z m989 -19 c-3 -5 -16 -10 -28 -9 -21 0 -21
1 -2 9 28 12 37 12 30 0z"/>
<path d="M2090 2578 c11 -12 20 -26 20 -32 0 -5 3 -7 6 -4 7 8 -25 58 -38 58
-5 0 0 -10 12 -22z"/>
<path d="M1800 2560 c0 -8 5 -22 10 -30 9 -13 10 -13 10 0 0 8 -5 22 -10 30
-9 13 -10 13 -10 0z"/>
<path d="M2117 2523 c-4 -3 -7 -15 -7 -25 0 -11 -4 -16 -10 -13 -5 3 -7 0 -4
-9 6 -15 -28 -40 -40 -29 -3 3 -6 1 -6 -5 0 -19 25 -14 48 11 27 29 45 97 19
70z"/>
<path d="M2220 2513 c-11 -36 -11 -44 2 -57 9 -8 18 -12 22 -9 11 11 6 23 -9
23 -18 0 -20 21 -4 37 6 6 9 19 7 29 -3 13 -9 6 -18 -23z"/>
<path d="M2158 2003 c6 -2 18 -2 25 0 6 3 1 5 -13 5 -14 0 -19 -2 -12 -5z"/>
<path d="M1810 1980 c0 -5 5 -10 10 -10 6 0 10 5 10 10 0 6 -4 10 -10 10 -5 0
-10 -4 -10 -10z"/>
<path d="M2180 1970 c0 -5 5 -10 10 -10 6 0 10 5 10 10 0 6 -4 10 -10 10 -5 0
-10 -4 -10 -10z"/>
<path d="M1767 1818 c-7 -26 -27 -40 -27 -18 0 6 -9 1 -20 -10 -11 -11 -20
-27 -20 -35 0 -8 -5 -15 -12 -15 -6 0 -9 -3 -5 -6 3 -4 20 5 37 20 17 14 38
26 45 26 19 0 23 11 15 40 l-6 25 -7 -27z"/>
<path d="M1761 1741 c-8 -5 -10 -14 -6 -21 6 -9 10 -8 17 4 12 21 7 28 -11 17z"/>
<path d="M1791 1724 c0 -11 3 -14 6 -6 3 7 2 16 -1 19 -3 4 -6 -2 -5 -13z"/>
<path d="M1711 1683 c-13 -45 -13 -91 0 -118 6 -14 7 -9 3 20 -3 23 -1 61 5
85 12 55 6 65 -8 13z"/>
<path d="M1741 1694 c0 -11 3 -14 6 -6 3 7 2 16 -1 19 -3 4 -6 -2 -5 -13z"/>
<path d="M1681 1654 c0 -11 3 -14 6 -6 3 7 2 16 -1 19 -3 4 -6 -2 -5 -13z"/>
<path d="M1782 1650 c0 -14 2 -19 5 -12 2 6 2 18 0 25 -3 6 -5 1 -5 -13z"/>
<path d="M1752 1640 c0 -14 2 -19 5 -12 2 6 2 18 0 25 -3 6 -5 1 -5 -13z"/>
<path d="M2271 1664 c0 -11 3 -14 6 -6 3 7 2 16 -1 19 -3 4 -6 -2 -5 -13z"/>
<path d="M2282 1620 c0 -14 2 -19 5 -12 2 6 2 18 0 25 -3 6 -5 1 -5 -13z"/>
<path d="M2303 1600 c0 -25 2 -35 4 -22 2 12 2 32 0 45 -2 12 -4 2 -4 -23z"/>
<path d="M2271 1577 c0 -10 -8 -32 -17 -48 -8 -17 -13 -33 -10 -36 9 -9 38 67
33 85 -4 15 -5 14 -6 -1z"/>
<path d="M2281 1513 c-10 -26 -10 -27 4 -9 8 11 15 23 15 28 0 15 -7 8 -19
-19z"/>
<path d="M2002 1590 c0 -19 2 -27 5 -17 2 9 2 25 0 35 -3 9 -5 1 -5 -18z"/>
<path d="M1991 1374 c0 -11 3 -14 6 -6 3 7 2 16 -1 19 -3 4 -6 -2 -5 -13z"/>
<path d="M1980 1329 c0 -5 5 -7 10 -4 6 3 10 8 10 11 0 2 -4 4 -10 4 -5 0 -10
-5 -10 -11z"/>
<path d="M2076 1605 c-9 -26 -7 -32 5 -12 6 10 9 21 6 23 -2 3 -7 -2 -11 -11z"/>
<path d="M2047 1553 c3 -7 6 -13 8 -13 2 0 5 6 8 13 3 8 -1 14 -8 14 -7 0 -11
-6 -8 -14z"/>
<path d="M2365 580 c3 -5 12 -10 20 -10 8 0 17 5 20 10 4 6 -5 10 -20 10 -15
0 -24 -4 -20 -10z"/>
<path d="M2425 569 c5 -13 -14 -19 -112 -38 -195 -38 -213 -42 -213 -53 0 -9
22 -7 73 8 9 3 17 1 17 -5 0 -6 -9 -11 -19 -11 -14 0 -18 -5 -14 -20 6 -24 -4
-26 -29 -3 -16 14 -18 14 -13 1 8 -20 50 -42 64 -34 6 4 11 14 11 22 0 8 5 14
10 14 6 0 10 -6 10 -14 0 -8 7 -17 16 -20 14 -5 15 0 10 39 -7 41 -5 45 13 45
13 0 18 -5 15 -13 -7 -19 14 -33 59 -41 l39 -7 -7 39 c-6 35 -4 40 17 46 13 3
32 5 43 5 16 -1 15 -2 -5 -8 -15 -4 -25 -14 -25 -25 0 -10 11 -26 25 -34 18
-11 21 -12 13 -2 -7 8 -13 20 -13 27 0 21 28 15 35 -7 3 -11 12 -20 20 -20 9
0 13 14 12 50 -2 38 -6 50 -17 50 -9 0 -22 6 -29 13 -10 10 -11 9 -6 -4z
m-107 -76 c-2 -9 -8 -18 -15 -20 -7 -3 -9 3 -6 16 6 25 26 28 21 4z"/>
<path d="M1790 545 c0 -8 8 -15 18 -15 10 0 24 -6 32 -12 12 -11 12 -10 0 5
-21 28 -50 41 -50 22z"/>
<path d="M1305 430 c8 -13 65 -43 71 -37 3 3 -14 14 -36 26 -23 12 -39 17 -35
11z"/>
<path d="M1281 414 c17 -20 89 -57 89 -45 0 5 -13 14 -30 21 -16 7 -35 18 -41
26 -6 8 -16 14 -21 14 -6 0 -5 -7 3 -16z"/>
<path d="M2577 384 c-16 -9 -27 -18 -24 -21 6 -5 67 24 67 32 0 8 -14 5 -43
-11z"/>
<path d="M2598 366 c-21 -12 -41 -26 -45 -30 -14 -15 72 25 87 39 21 21 1 17
-42 -9z"/>
<path d="M1324 2951 c-59 -36 -76 -68 -74 -141 4 -112 1 -128 -22 -150 -24
-23 -28 -23 -159 -3 -22 3 -39 0 -43 -6 -9 -14 -89 -14 -103 0 -6 6 -42 14
-80 16 -59 5 -72 2 -95 -17 -29 -22 -37 -63 -17 -76 9 -5 10 1 5 19 -16 64 80
88 185 47 48 -19 54 -20 98 -5 35 11 55 13 81 5 54 -15 116 -12 135 7 28 27
35 60 32 146 -1 64 2 87 15 106 29 42 69 61 125 61 67 0 93 -22 132 -115 17
-38 30 -64 31 -56 0 13 -22 67 -53 131 -7 14 -24 30 -37 37 -38 19 -120 16
-156 -6z"/>
<path d="M1082 2567 c-25 -27 -28 -39 -8 -31 7 3 16 -2 19 -10 7 -18 52 -22
62 -6 3 6 -4 10 -18 10 -14 0 -30 7 -37 15 -14 17 -7 19 20 5 25 -13 75 11 58
28 -20 20 -73 14 -96 -11z m58 3 c0 -5 -4 -10 -9 -10 -6 0 -13 5 -16 10 -3 6
1 10 9 10 9 0 16 -4 16 -10z"/>
<path d="M2860 2530 c-24 -15 17 -42 54 -35 25 4 27 3 16 -10 -7 -9 -21 -13
-31 -10 -11 4 -19 2 -19 -3 0 -17 31 -22 53 -10 12 7 25 11 30 10 13 -4 7 15
-14 42 -21 27 -60 34 -89 16z m60 -10 c0 -5 -7 -10 -15 -10 -8 0 -15 5 -15 10
0 6 7 10 15 10 8 0 15 -4 15 -10z"/>
<path d="M863 2453 c-22 -8 -14 -23 11 -23 13 0 29 7 36 15 10 13 9 15 -11 14
-13 0 -30 -3 -36 -6z"/>
<path d="M3110 2382 c0 -12 50 -33 61 -26 16 10 -11 34 -37 34 -13 0 -24 -4
-24 -8z"/>
<path d="M453 2080 c-13 -5 -23 -11 -23 -12 0 -2 27 -3 60 -3 32 0 56 3 52 7
-13 13 -66 18 -89 8z"/>
<path d="M390 2044 c-14 -7 -43 -16 -64 -19 -28 -5 -50 -18 -74 -43 -19 -20
-49 -52 -66 -70 -30 -32 -31 -33 -14 -62 15 -27 15 -34 3 -64 -11 -25 -12 -42
-4 -70 6 -20 7 -46 4 -56 -4 -14 -2 -20 8 -20 17 0 42 28 51 56 6 19 23 32 66
48 8 4 0 4 -18 1 -24 -3 -31 -1 -25 7 4 7 8 19 10 28 1 8 9 42 16 75 14 58 15
58 16 20 0 -22 -6 -53 -14 -69 -18 -35 -18 -36 -1 -36 7 0 30 18 50 40 30 34
36 47 36 86 0 55 18 122 38 147 17 20 16 20 -18 1z m-20 -29 c0 -2 -13 -11
-30 -20 -34 -18 -58 -58 -70 -118 l-8 -42 -1 41 c-1 29 7 52 24 78 13 20 20
36 16 36 -20 0 -51 -70 -60 -134 -11 -79 -21 -97 -21 -40 0 28 -3 35 -10 24
-5 -8 -12 -11 -16 -7 -4 3 3 28 16 54 13 27 28 59 34 72 6 13 29 32 51 42 38
18 75 25 75 14z m-21 -151 c-6 -8 -15 -14 -20 -14 -15 0 -10 60 9 93 l17 32 3
-48 c2 -27 -2 -55 -9 -63z m-36 71 c-3 -9 -8 -14 -10 -11 -3 3 -2 9 2 15 9 16
15 13 8 -4z m-114 -163 c-6 -18 -15 -32 -20 -32 -12 0 -11 6 7 41 19 39 28 33
13 -9z m44 -26 c6 -15 -19 -30 -34 -21 -5 4 -6 -7 -3 -23 4 -17 1 -32 -5 -36
-18 -11 -13 55 6 76 19 22 29 23 36 4z"/>
<path d="M582 2041 c24 -19 48 -78 48 -118 0 -11 -13 -47 -29 -79 -27 -52 -27
-56 -6 -30 30 38 49 106 41 150 -7 36 -49 96 -68 96 -6 0 0 -9 14 -19z"/>
<path d="M451 2019 c-22 -9 -23 -12 -16 -75 6 -60 5 -66 -14 -71 -15 -4 -22
-16 -27 -49 -3 -24 -12 -49 -20 -55 -10 -8 -14 -8 -14 0 0 8 -5 8 -18 0 -13
-8 -17 -20 -14 -44 l4 -33 72 48 c93 62 150 120 164 169 17 55 15 69 -13 96
-25 26 -62 31 -104 14z m102 -31 c18 -24 19 -32 9 -67 -15 -47 -75 -112 -154
-164 -64 -42 -89 -49 -42 -12 20 15 34 37 38 58 4 19 16 43 27 53 19 17 20 26
15 81 -6 53 -4 63 11 72 30 18 74 8 96 -21z"/>
<path d="M401 1968 c-1 -21 4 -38 9 -38 11 0 11 14 0 50 -7 22 -8 21 -9 -12z"/>
<path d="M716 1736 c-13 -30 -44 -73 -68 -97 -36 -35 -38 -38 -10 -20 40 28
74 73 95 129 24 60 11 52 -17 -12z"/>
<path d="M470 1714 c-88 -68 -193 -164 -186 -171 2 -3 24 17 48 43 23 25 68
63 98 84 51 35 141 110 130 109 -3 0 -43 -30 -90 -65z"/>
<path d="M269 1653 c-45 -48 -79 -97 -79 -115 0 -7 12 7 25 32 14 25 44 62 68
82 23 21 37 38 32 38 -6 0 -27 -17 -46 -37z"/>
<path d="M570 1590 c-8 -5 -12 -12 -9 -15 4 -3 12 1 19 10 14 17 11 19 -10 5z"/>
<path d="M504 1545 c-18 -14 -46 -47 -64 -75 -46 -72 -87 -88 -140 -54 l-25
16 24 -21 c13 -12 37 -21 55 -21 35 0 54 17 100 85 14 22 43 52 63 68 20 15
32 27 27 27 -5 0 -23 -11 -40 -25z"/>
<path d="M177 1490 c-4 -16 -2 -40 3 -52 7 -18 9 -12 9 30 1 58 -4 67 -12 22z"/>
<path d="M261 1490 c0 -8 4 -24 9 -35 5 -13 9 -14 9 -5 0 8 -4 24 -9 35 -5 13
-9 14 -9 5z"/>
<path d="M190 1402 c0 -18 64 -82 81 -82 8 0 0 10 -18 22 -17 13 -38 34 -47
48 -8 14 -16 19 -16 12z"/>
<path d="M303 1308 c6 -4 33 -8 59 -8 47 0 47 0 38 -27 -14 -44 -19 -112 -9
-119 5 -3 9 18 9 46 0 28 6 65 14 83 l13 33 -68 0 c-38 0 -63 -4 -56 -8z"/>
<path d="M381 1124 c0 -11 3 -14 6 -6 3 7 2 16 -1 19 -3 4 -6 -2 -5 -13z"/>
<path d="M364 1068 c-4 -13 -20 -35 -37 -49 l-30 -27 16 -41 c10 -23 17 -51
17 -63 0 -12 3 -18 7 -15 3 4 0 31 -7 61 l-13 55 32 36 c17 20 31 42 31 50 0
22 -8 18 -16 -7z"/>
<path d="M935 323 c-82 -9 -50 -18 60 -18 62 0 108 3 102 6 -18 10 -116 17
-162 12z"/>
<path d="M806 265 c-42 -33 -58 -55 -38 -55 16 0 126 50 111 50 -9 0 -34 -7
-55 -16 -36 -15 -37 -15 -24 2 8 9 29 25 45 36 17 10 25 18 19 18 -6 0 -32
-16 -58 -35z"/>
<path d="M1103 266 c0 -9 5 -16 11 -16 6 0 5 -4 -3 -9 -11 -7 -3 -12 30 -21
24 -6 57 -16 72 -22 15 -6 30 -8 33 -5 3 3 -14 12 -38 21 -35 13 -37 15 -10
10 48 -8 44 22 -5 35 -87 23 -90 23 -90 7z m94 -22 c-3 -3 -12 -4 -19 -1 -8 3
-5 6 6 6 11 1 17 -2 13 -5z m-40 -10 c-3 -3 -12 -4 -19 -1 -8 3 -5 6 6 6 11 1
17 -2 13 -5z"/>
<path d="M944 247 c16 -12 16 -14 -8 -27 -25 -13 -126 -121 -126 -135 0 -10
69 5 148 31 87 29 94 29 171 5 34 -10 61 -16 61 -12 0 9 -110 41 -140 41 -10
0 -54 -11 -96 -25 -113 -37 -122 -35 -82 19 18 25 52 55 76 68 38 21 40 24 25
36 -9 6 -24 12 -32 12 -12 0 -11 -3 3 -13z"/>
<path d="M2723 218 c-28 -6 -43 -15 -43 -24 0 -13 9 -15 43 -10 31 4 35 3 17
-3 -25 -9 -25 -9 5 -11 26 -1 27 -3 10 -10 -18 -8 -18 -9 5 -9 14 0 34 4 45 9
18 8 18 9 -5 10 -23 1 -23 2 -5 9 19 8 18 9 -5 13 -23 5 -23 5 -2 7 12 0 22 8
22 16 0 17 -23 18 -87 3z"/>
<path d="M1103 214 c8 -8 137 -53 137 -48 0 7 -36 22 -89 38 -30 9 -51 13 -48
10z"/>
<path d="M2930 189 c-8 -6 -11 -12 -5 -15 6 -2 24 -13 42 -24 35 -21 107 -113
93 -118 -5 -2 -42 10 -82 26 -110 44 -126 46 -235 22 -107 -23 -223 -28 -265
-11 -16 6 -28 7 -28 2 0 -15 60 -31 114 -31 29 0 104 11 167 24 124 27 156 24
236 -18 17 -8 54 -18 83 -22 l54 -7 -35 43 c-19 24 -51 61 -71 82 -21 21 -38
40 -38 43 0 10 89 5 95 -5 3 -5 14 -10 23 -10 12 1 10 5 -8 15 -29 17 -118 19
-140 4z"/>
<path d="M1158 169 c74 -26 75 -36 1 -20 -28 6 -54 9 -56 7 -8 -8 101 -28 127
-24 23 4 21 7 -22 26 -25 12 -61 24 -80 27 -19 3 -7 -4 30 -16z"/>
<path d="M2411 177 c-2 -15 27 -75 40 -83 11 -6 12 -5 2 7 -6 8 -18 30 -26 49
-9 19 -16 31 -16 27z"/>
<path d="M2665 160 c-7 -12 2 -12 30 0 19 8 19 9 -2 9 -12 1 -25 -3 -28 -9z"/>
<path d="M1459 133 c-13 -16 -12 -17 4 -4 16 13 21 21 13 21 -2 0 -10 -8 -17
-17z"/>
<path d="M2683 140 c-13 -5 -23 -11 -23 -14 0 -6 60 11 68 19 8 8 -20 5 -45
-5z"/>
<path d="M2708 123 c-30 -9 -48 -20 -48 -29 0 -12 7 -14 28 -10 15 3 46 8 69
11 24 4 46 11 49 17 4 6 -1 8 -12 5 -39 -12 -99 -19 -92 -12 4 4 31 13 60 21
37 8 44 12 23 12 -16 0 -51 -7 -77 -15z"/>
</g>
</svg>
